<svg width="26" height="26" viewBox="0 0 26 26" fill="none" xmlns="http://www.w3.org/2000/svg">
<path fill-rule="evenodd" clip-rule="evenodd" d="M6.85835 8.66667H19.1423C19.7745 8.66659 20.3751 8.94263 20.7868 9.42241C21.1985 9.90218 21.3801 10.5378 21.284 11.1627L19.9244 19.994C19.6805 21.5799 18.3158 22.7505 16.7113 22.75H9.28826C7.68414 22.7499 6.32001 21.5795 6.07618 19.994L4.7166 11.1627C4.6205 10.5378 4.80211 9.90218 5.21379 9.42241C5.62547 8.94263 6.22616 8.66659 6.85835 8.66667Z" stroke="#F49719" stroke-width="2" stroke-linecap="round" stroke-linejoin="round"/>
<path d="M9.75 11.9167V6.5C9.75 4.70507 11.2051 3.25 13 3.25C14.7949 3.25 16.25 4.70507 16.25 6.5V11.9167" stroke="#F49719" stroke-width="2" stroke-linecap="round" stroke-linejoin="round"/>
</svg>
