<svg width="70" height="70" viewBox="0 0 70 70" fill="none" xmlns="http://www.w3.org/2000/svg">
<g id="Group 2">
<g id="padlock_5792765">
<g id="Group">
<path id="Shape" fill-rule="evenodd" clip-rule="evenodd" d="M22.5251 13.1373C23.9878 8.51303 27.6023 5.22996 32.4123 4.1682C33.6358 3.88879 37.0535 3.97261 38.3192 4.30791C39.4022 4.58732 41.554 5.56525 42.4682 6.19393C44.0856 7.2976 45.8577 9.32332 46.7578 11.0836C47.6157 12.7601 48.1642 15.177 48.1642 17.2446V18.474L48.6987 18.5718C49.8801 18.7814 50.8224 19.5497 51.1177 20.5556C51.2302 20.9049 51.2584 23.1122 51.2302 27.499L51.188 33.9254L50.7802 35.1129C50.0488 37.3062 49.2472 38.6474 47.7564 40.1981C46.0827 41.9305 44.0856 43.104 41.7087 43.7467C40.3732 44.1097 40.3164 44.1099 35.091 44.1238L35.0845 44.1239C30.0776 44.1239 29.7541 44.1099 28.5727 43.8165C24.0018 42.657 20.6545 39.4577 19.234 34.8754L18.8543 33.646L18.7981 27.3034L18.7559 20.9747L19.1215 20.2063C19.5575 19.3541 20.1763 18.8652 21.203 18.6137L21.8641 18.46V17.7894C21.8641 16.4064 22.1735 14.227 22.5251 13.1373ZM46.5468 13.6681C45.2811 9.39317 41.8212 6.19393 37.4754 5.28584C36.2096 5.0204 33.7765 5.03437 32.4826 5.31379C28.1508 6.22187 24.5363 9.7145 23.4252 14.0454C23.2705 14.6321 23.1017 15.8615 23.0455 16.7975L22.947 18.488H24.1003H25.2395V17.049C25.2395 16.0571 25.3239 15.2468 25.5208 14.5203C27.0678 8.48509 33.7343 5.46746 39.4303 8.24759C40.5273 8.7645 40.9633 9.08582 41.8916 10.0218C42.5245 10.6365 43.2417 11.5027 43.4949 11.9498C44.4091 13.5005 44.9154 15.4843 44.9294 17.6078V18.488H45.9983H47.0813L46.9969 16.6997C46.9406 15.3586 46.8281 14.6181 46.5468 13.6681ZM37.6582 8.69465C40.3445 9.63067 42.3698 11.5726 43.2417 14.0593C43.5793 14.9953 43.8043 16.4064 43.8043 17.6078V18.488H35.0845L26.3646 18.488V17.1189C26.3646 15.4564 26.6318 14.2689 27.2788 13.0534C28.4883 10.7763 30.4151 9.22553 32.8623 8.56891C34.1984 8.20568 36.4346 8.26156 37.6582 8.69465ZM49.6636 20.1872C49.5525 20.0877 49.4156 20.017 49.2472 19.9269C48.8252 19.6894 47.9251 19.6755 35.2251 19.6615C27.757 19.6475 21.4703 19.7034 21.2452 19.7593C20.767 19.885 20.3592 20.2483 20.092 20.7512C19.8107 21.296 19.8107 32.1092 20.092 33.6041C20.9499 38.0187 24.1706 41.4415 28.6852 42.6849C29.7541 42.9783 30.0635 42.9922 35.0141 43.0062C39.6694 43.0062 40.3164 42.9783 41.2024 42.7408C45.3795 41.6371 48.3471 38.857 49.7254 34.7636C50.0488 33.7997 50.0629 33.6599 50.1051 27.4012C50.1395 21.6345 50.1552 20.6278 49.6636 20.1872Z" fill="#F49719"/>
<path id="Shape_2" fill-rule="evenodd" clip-rule="evenodd" d="M23.1295 23.1122C23.017 23.3078 22.9889 24.8306 23.017 28.1695C23.0873 33.4644 23.1014 33.5761 24.0859 35.4621C24.7891 36.8033 26.294 38.2842 27.616 38.9548C29.4865 39.8908 29.8241 39.9327 35.0138 39.9327C40.1472 39.9327 40.5692 39.8768 42.3975 38.9967C43.5789 38.4239 45.3932 36.6496 46.0261 35.4342C46.9403 33.7019 47.0387 32.9614 47.0387 27.7784C47.0387 24.3696 46.9965 23.1122 46.87 22.9865C46.7434 22.8607 43.9165 22.8188 34.9857 22.8188H23.2842L23.1295 23.1122ZM45.9136 28.0857C45.9136 32.668 45.8292 33.3526 45.0697 34.8195C44.8447 35.2805 44.3103 36.021 43.9024 36.4541L43.1429 37.2643L42.1303 36.3423C41.0192 35.3224 39.1206 34.2886 37.686 33.9254C34.2262 33.0452 30.5273 33.9813 27.8129 36.4401L26.9268 37.2364L26.2377 36.5379C25.422 35.6996 24.9438 34.9173 24.5219 33.7158C24.2124 32.8497 24.1984 32.5703 24.1421 28.3651L24.0859 23.9365H34.9997L45.9136 23.9365V28.0857ZM41.3286 37.0967C40.4004 36.2864 38.7971 35.3923 37.6157 35.057C36.4905 34.7217 34.2543 34.6519 33.0448 34.9173C31.5681 35.2386 29.8803 36.1048 28.8536 37.0548L27.9817 37.879L28.6146 38.1585C29.8241 38.6754 30.6117 38.7452 35.056 38.7452C39.5847 38.7452 40.5129 38.6474 41.6381 38.0746L42.1444 37.8092L41.3286 37.0967Z" fill="#F49719"/>
<path id="Shape_3" fill-rule="evenodd" clip-rule="evenodd" d="M31.681 26.9122C32.0467 26.2276 33.0734 25.2916 33.7063 25.096C34.4798 24.8446 35.9285 24.8865 36.5754 25.1798C37.8834 25.7666 38.7272 27.0659 38.7413 28.4629C38.7413 29.5945 38.5022 30.2651 37.8553 31.0055C37.152 31.7879 36.3785 32.193 35.3659 32.2769C32.4686 32.5423 30.3731 29.4688 31.681 26.9122ZM37.5599 27.7923C37.4474 27.3453 36.702 26.4931 36.1957 26.2276C35.6753 25.9622 34.4236 25.9762 33.8891 26.2556C31.9623 27.2475 31.9483 29.9857 33.8469 30.9078C35.5347 31.718 37.4333 30.6842 37.588 28.896C37.6162 28.4769 37.6162 27.9879 37.5599 27.7923Z" fill="#F49719"/>
<path id="Shape_4" fill-rule="evenodd" clip-rule="evenodd" d="M3.21461 50.1312C3.8053 47.9238 5.46489 46.2613 7.67298 45.6746C8.31993 45.493 12.2298 45.465 34.9014 45.465C53.86 45.4511 61.5813 45.493 62.1157 45.6047C63.9863 45.9959 65.5896 47.2533 66.4616 49.0135L66.9398 49.9915L66.982 55.3561C67.0241 60.4274 67.0101 60.7767 66.7429 61.6708C66.1803 63.473 64.6192 65.0377 62.7346 65.6804C62.0595 65.9039 60.2592 65.9179 35.6468 65.9598C17.4336 65.9877 8.96689 65.9458 8.2918 65.848C6.9557 65.6384 5.73211 65.0098 4.80387 64.0458C3.93188 63.1377 3.52402 62.4392 3.22867 61.2796C2.93332 60.176 2.91926 51.1929 3.21461 50.1312ZM65.5474 49.754C64.9286 48.2452 63.8175 47.2533 62.2423 46.7922C61.5532 46.5966 58.7966 46.5687 35.028 46.5827C20.2324 46.5966 8.334 46.6525 8.03865 46.7224C6.59003 47.0577 5.26799 48.1474 4.60697 49.5724L4.21317 50.4106V55.7194L4.21317 61.0282L4.67729 61.9642C5.22579 63.0818 6.23842 64.0318 7.37763 64.4929L8.15116 64.8002L34.5216 64.8421C53.8459 64.8701 61.1172 64.8421 61.736 64.7304C62.9174 64.4929 63.7612 64.0318 64.591 63.1377C65.8709 61.7407 65.8849 61.6289 65.8849 55.6775C65.8849 50.6341 65.8709 50.5363 65.5474 49.754Z" fill="#F49719"/>
<path id="Shape_5" fill-rule="evenodd" clip-rule="evenodd" d="M13.0737 51.4444C13.1159 51.3326 13.8332 50.8577 14.663 50.3827C15.6053 49.8378 16.2945 49.5165 16.5195 49.5444C16.7726 49.5584 16.9836 49.7959 17.3774 50.4525L17.8837 51.3466L18.4041 50.4246C18.7979 49.726 18.9948 49.5025 19.2339 49.5025C19.6558 49.5025 22.539 51.165 22.6374 51.4724C22.6937 51.626 22.5249 52.0591 22.2296 52.576C21.9483 53.051 21.7233 53.4562 21.7233 53.4981C21.7233 53.526 22.1874 53.554 22.7499 53.554C23.3547 53.554 23.847 53.6238 23.9454 53.7216C24.1845 53.9591 24.1845 57.4797 23.9454 57.7172C23.847 57.815 23.3547 57.8848 22.7359 57.8848H21.6951L22.2155 58.7929C22.5109 59.3238 22.6937 59.8127 22.6515 59.9525C22.539 60.2598 19.5574 61.9782 19.2339 61.9083C19.0229 61.8664 18.6432 61.3774 17.9962 60.3297C17.8837 60.1341 17.7712 60.2598 17.3211 61.0142C16.9695 61.6289 16.7023 61.9363 16.5335 61.9363C16.1679 61.9363 13.3128 60.2877 13.1441 59.9944C13.0175 59.7429 13.2706 59.1282 13.791 58.3738C13.9035 58.2201 13.9879 58.0525 13.9879 57.9966C13.9879 57.9267 13.5097 57.8848 12.9331 57.8848C12.047 57.8848 11.8642 57.8429 11.7376 57.6194C11.5267 57.2282 11.5548 53.9312 11.7658 53.7216C11.8642 53.6238 12.3565 53.554 12.9612 53.554C13.5238 53.554 13.9879 53.512 13.9879 53.4701C13.9879 53.4282 13.7629 52.9951 13.4957 52.5062C13.2144 52.0312 13.0315 51.5422 13.0737 51.4444ZM18.8401 51.8775C17.954 53.4003 17.7993 53.3863 16.7445 51.626C16.7036 51.5603 16.6638 51.4961 16.6255 51.4344C16.3873 51.0505 16.2081 50.7618 16.196 50.7738C16.1864 50.7738 16.0142 50.8772 15.7723 51.0225C15.6585 51.0908 15.5293 51.1684 15.3943 51.2488C14.9724 51.5143 14.5645 51.7518 14.4942 51.7797C14.4239 51.8076 14.6349 52.2687 14.9443 52.8135C15.9007 54.4341 15.7741 54.6716 13.9598 54.6716H12.7221V55.7194V56.7672H13.9598C15.7459 56.7672 15.8866 56.9907 14.9865 58.5275C14.6771 59.0583 14.452 59.5194 14.4942 59.5752C14.5786 59.7289 16.0272 60.5392 16.196 60.5392C16.2663 60.5392 16.5898 60.0642 16.9273 59.4775C17.4618 58.5414 17.5743 58.4297 17.8978 58.4716C18.2072 58.4995 18.39 58.723 18.8823 59.5892L19.487 60.651L20.3872 60.148C20.8935 59.8547 21.3013 59.5892 21.3013 59.5333C21.3013 59.4914 21.0482 59.0164 20.7388 58.4716C19.8527 56.9488 19.9512 56.7672 21.7514 56.7672H22.989V55.7194V54.6716H21.8498C20.6544 54.6716 20.1762 54.5319 20.1762 54.1547C20.1762 54.0429 20.4434 53.4701 20.7528 52.8834C21.231 52.0451 21.3013 51.8216 21.1466 51.7238C21.0341 51.654 20.6262 51.4165 20.2184 51.1929L19.487 50.7599L18.8401 51.8775Z" fill="#F49719"/>
<path id="Shape_6" fill-rule="evenodd" clip-rule="evenodd" d="M30.4008 51.3466C30.5414 51.1929 31.2587 50.704 31.9901 50.2849C33.6918 49.293 33.8606 49.293 34.5357 50.4525L35.042 51.3466L35.5624 50.4246C35.9562 49.726 36.1531 49.5025 36.3922 49.5025C36.8282 49.5025 39.7113 51.179 39.8098 51.4863C39.852 51.654 39.7113 52.0591 39.3879 52.59C39.1066 53.051 38.8815 53.4562 38.8815 53.4981C38.8815 53.526 39.3457 53.554 39.9082 53.554C40.513 53.554 41.0052 53.6238 41.1037 53.7216C41.3428 53.9591 41.3428 57.4797 41.1037 57.7172C41.0052 57.815 40.513 57.8848 39.9082 57.8848H38.8675L39.3738 58.7929C39.6832 59.3238 39.852 59.7988 39.8098 59.9385C39.6973 60.2598 36.7156 61.9782 36.3922 61.9083C36.1812 61.8664 35.8015 61.3774 35.1545 60.3297C35.042 60.1341 34.9295 60.2598 34.4794 61.0142C34.1138 61.6429 33.8606 61.9363 33.6778 61.9363C33.3543 61.9363 30.7524 60.4694 30.4008 60.0782C30.1617 59.8127 30.1758 59.7708 30.6539 58.9047C30.9212 58.4157 31.1462 57.9826 31.1462 57.9547C31.1462 57.9128 30.668 57.8848 30.0914 57.8848C29.2053 57.8848 29.0225 57.8429 28.8959 57.6194C28.7131 57.2701 28.7131 54.1687 28.8959 53.8194C29.0225 53.5959 29.2053 53.554 30.0914 53.554C30.668 53.554 31.1462 53.512 31.1462 53.4701C31.1462 53.4282 30.9212 52.9951 30.6539 52.5062C30.1758 51.6679 30.1617 51.626 30.4008 51.3466ZM36.0124 51.8775C35.1264 53.4003 34.9014 53.3723 33.959 51.7099C33.72 51.2628 33.4668 50.8716 33.4246 50.8437C33.3684 50.8157 32.9746 51.0113 32.5526 51.2628C32.1307 51.5143 31.7228 51.7518 31.6525 51.7797C31.5822 51.8076 31.7932 52.2687 32.1026 52.7996C33.073 54.4062 32.9324 54.6716 31.1181 54.6716H29.8804V55.7194V56.7672H31.0618C31.7088 56.7672 32.3417 56.8091 32.4682 56.851C32.8339 56.9907 32.7214 57.6194 32.1307 58.5694C31.8353 59.0723 31.6103 59.5194 31.6525 59.5752C31.7228 59.701 33.2136 60.5392 33.3684 60.5392C33.4246 60.5392 33.7481 60.0642 34.0856 59.4775C34.6201 58.5554 34.7326 58.4297 35.0561 58.4716C35.3373 58.4995 35.5483 58.737 36.0406 59.5752L36.6735 60.637L37.5595 60.1341C38.0517 59.8547 38.4596 59.5892 38.4596 59.5333C38.4596 59.4914 38.2065 59.0164 37.897 58.4716C37.011 56.9488 37.1094 56.7672 38.9097 56.7672H40.1473V55.7194V54.6716H39.0081C37.8127 54.6716 37.3345 54.5319 37.3345 54.1547C37.3345 54.0429 37.6017 53.4701 37.9111 52.8834C38.3893 52.0451 38.4596 51.8216 38.3049 51.7238C38.1924 51.654 37.7845 51.4165 37.3907 51.1929L36.6594 50.7738L36.0124 51.8775Z" fill="#F49719"/>
<path id="Shape_7" fill-rule="evenodd" clip-rule="evenodd" d="M47.5596 51.3466C47.7002 51.179 48.4175 50.704 49.1488 50.2849C50.8647 49.293 51.0194 49.3069 51.6945 50.4525L52.2149 51.3466L52.7352 50.4246C53.115 49.754 53.3259 49.5025 53.5369 49.5025C53.9307 49.5025 56.8842 51.151 56.9967 51.4304C57.0389 51.5562 56.842 52.0731 56.5466 52.604L56.0263 53.554H57.053C57.6718 53.554 58.164 53.6238 58.2625 53.7216C58.5016 53.9591 58.5016 57.4797 58.2625 57.7172C58.164 57.815 57.6718 57.8848 57.067 57.8848H56.0263L56.5326 58.7929C56.842 59.3238 57.0108 59.7988 56.9686 59.9385C56.8842 60.2039 53.9729 61.9363 53.6213 61.9363C53.3681 61.9363 53.1009 61.6429 52.6087 60.7627L52.2149 60.0922L51.6523 61.0142C51.2866 61.6289 51.0194 61.9363 50.8366 61.9363C50.6959 61.9363 49.8942 61.5451 49.0504 61.0561C47.9253 60.3995 47.5174 60.0922 47.4893 59.8686C47.4611 59.687 47.6299 59.212 47.869 58.7929C48.1081 58.3738 48.305 57.9966 48.305 57.9547C48.305 57.9128 47.8268 57.8848 47.2502 57.8848C46.3641 57.8848 46.1813 57.8429 46.0547 57.6194C45.9844 57.4657 45.9141 56.6135 45.9141 55.7194C45.9141 54.8253 45.9844 53.9731 46.0547 53.8194C46.1813 53.5959 46.3641 53.554 47.2502 53.554C47.8268 53.554 48.305 53.512 48.305 53.4701C48.305 53.4282 48.08 52.9951 47.8127 52.5062C47.3346 51.6679 47.3205 51.626 47.5596 51.3466ZM53.2275 51.8076C52.3696 53.3584 52.1023 53.3723 51.2304 51.8775C50.9491 51.4025 50.6678 50.9554 50.5975 50.8996C50.5412 50.8437 50.1333 51.0113 49.7114 51.2628C49.2895 51.5143 48.8816 51.7518 48.8254 51.7657C48.755 51.7937 48.966 52.2547 49.2754 52.7996C50.2177 54.4201 50.0771 54.6716 48.2769 54.6716H47.0392V55.7194V56.7672H48.2206C48.8676 56.7672 49.5004 56.8091 49.627 56.851C49.9927 56.9907 49.8802 57.6194 49.3035 58.5833C48.9941 59.0863 48.7832 59.5333 48.8113 59.5752C48.8816 59.701 50.3865 60.5392 50.5271 60.5392C50.5834 60.5392 50.9069 60.0642 51.2444 59.4775C51.7789 58.5414 51.8914 58.4297 52.2149 58.4716C52.5102 58.4995 52.7212 58.723 53.2134 59.5752L53.8322 60.637L54.7183 60.1341C55.2105 59.8547 55.6184 59.5892 55.6184 59.5333C55.6184 59.4914 55.3652 59.0164 55.0558 58.4716C54.1698 56.9488 54.2682 56.7672 56.0685 56.7672H57.3061V55.7194V54.6716H56.1669C54.9574 54.6716 54.4933 54.5319 54.4933 54.1407C54.4933 54.001 54.7464 53.4701 55.0558 52.9393C55.3652 52.4223 55.6184 51.9474 55.6184 51.8915C55.6184 51.7937 55.5059 51.7238 54.4651 51.1231L53.8182 50.7459L53.2275 51.8076Z" fill="#F49719"/>
</g>
</g>
</g>
</svg>
