<svg width="70" height="70" viewBox="0 0 70 70" fill="none" xmlns="http://www.w3.org/2000/svg">
<g id="Group 11">
<g id="Group 4">
<path id="Shape" fill-rule="evenodd" clip-rule="evenodd" d="M7.11064 9.1292C5.56211 9.39418 4.18251 10.4402 3.46456 11.8906L3 12.825L3 34.9996L3 57.1741L3.46456 58.1085C4.02766 59.2382 5.01309 60.1726 6.13929 60.6189L6.94171 60.9396L34.6604 60.9815C36.401 60.9838 38.0365 60.9863 39.5732 60.9885C62.0721 61.0218 63.4282 61.0238 64.3611 60.3965C64.421 60.3562 64.4791 60.3134 64.5409 60.2678C64.6106 60.2164 64.6851 60.1615 64.7722 60.1029C65.6732 59.5171 66.2363 58.8198 66.6445 57.8157L66.9542 57.0347L66.9965 35.139C67.0106 23.0894 66.9824 13.0481 66.912 12.825C66.5742 11.5698 65.4057 10.1473 64.2373 9.57549C63.9276 9.42208 63.2941 9.22683 62.8295 9.14315C61.8441 8.96185 8.19461 8.9479 7.11064 9.1292ZM63.7305 10.6772C64.6455 11.1375 65.1101 11.6116 65.5606 12.6158C65.814 13.1736 65.8562 13.5362 65.8562 16.0605V18.8916H52.4403L51.6989 18.8916C39.4439 18.8914 38.1876 18.8914 37.2434 19.4342C37.1355 19.4962 37.0317 19.5653 36.9161 19.6423C36.9011 19.6523 36.886 19.6624 36.8706 19.6726C36.5749 19.8678 36.0681 20.3281 35.7444 20.7046C35.4346 21.0672 34.8997 21.4996 34.5618 21.6669C33.9565 21.9598 33.9002 21.9598 18.9921 21.9598H4.04174L4.08397 17.5249L4.08403 17.5201C4.14028 12.6018 4.1406 12.5736 5.13979 11.4861C5.64658 10.9283 6.1956 10.5796 6.87132 10.3704C7.06841 10.3146 19.7382 10.2589 35.0405 10.2589L62.8577 10.2449L63.7305 10.6772ZM65.8562 56.8952V38.4443V20.0073L52.384 20.0212C41.3472 20.0212 38.7851 20.0631 38.2783 20.2165C37.8419 20.356 37.3633 20.7046 36.6594 21.374C36.1104 21.9179 35.3783 22.5037 35.0264 22.685L34.3929 23.0058L19.2173 23.0476L4.05582 23.0755L4.08397 40.0621L4.1262 57.0347L4.56261 57.8017C4.80192 58.2201 5.26648 58.778 5.59027 59.015C5.72789 59.1204 5.82486 59.2134 5.93037 59.2953C6.77463 59.9512 8.16582 59.903 35.3079 59.8658C61.4499 59.8239 62.9985 59.81 63.5053 59.5729C64.3077 59.1964 65.1664 58.3735 65.5183 57.5925L65.8562 56.8952Z" fill="#F49719"/>
<path id="Shape_2" fill-rule="evenodd" clip-rule="evenodd" d="M39.3764 16.465C37.7856 15.3911 38.2361 12.9226 40.1084 12.4763C40.3759 12.4066 45.2467 12.3648 50.9481 12.3787L61.2951 12.4066L61.816 12.7553C62.5198 13.2294 62.9562 14.122 62.8577 14.8751C62.7732 15.5445 62.4354 16.0466 61.7737 16.4789L61.3092 16.7997L50.5962 16.7997H39.8832L39.3764 16.465ZM61.4781 15.3214C61.8723 14.8333 61.8441 14.387 61.4359 13.9128L61.098 13.5223L50.8355 13.4944C40.038 13.4526 39.855 13.4665 39.6157 14.0802C39.4327 14.5543 39.5312 15.0843 39.855 15.3772L40.1788 15.684L50.6806 15.684L61.1965 15.684L61.4781 15.3214Z" fill="#F49719"/>
<path id="Shape_3" fill-rule="evenodd" clip-rule="evenodd" d="M16.9363 17.1902C16.3169 15.6979 17.2179 13.9267 18.7946 13.5223C19.8926 13.2294 20.9062 13.5363 21.6523 14.373C22.8208 15.6979 22.3703 17.8317 20.7654 18.5988C19.2873 19.31 17.5698 18.6824 16.9363 17.1902ZM19.5407 17.7759C21.0188 17.7759 21.7368 15.9769 20.6528 14.9727C19.9067 14.2754 18.7523 14.4009 18.1752 15.2516C17.415 16.3673 18.1752 17.7759 19.5407 17.7759Z" fill="#F49719"/>
<path id="Shape_4" fill-rule="evenodd" clip-rule="evenodd" d="M25.4541 16.1442C25.4541 14.8332 26.4114 13.6757 27.6784 13.4526C28.5934 13.2992 29.7337 13.6478 30.2545 14.2336C31.0147 15.0843 31.1837 16.5626 30.6346 17.5109C29.79 19.0032 27.6784 19.3658 26.4114 18.2222C25.7216 17.6086 25.4541 17.0368 25.4541 16.1442ZM29.8181 16.186C29.8181 15.684 29.7337 15.4608 29.438 15.1261C28.3682 13.9686 26.5803 14.638 26.5803 16.2C26.5803 16.7299 26.6507 16.8973 27.0589 17.3017C27.4672 17.7062 27.6361 17.7759 28.1992 17.7759C28.7623 17.7759 28.9313 17.7062 29.3395 17.3017C29.7478 16.8973 29.8181 16.7299 29.8181 16.186Z" fill="#F49719"/>
<path id="Shape_5" fill-rule="evenodd" clip-rule="evenodd" d="M27.8609 27.3849C27.9313 27.2315 28.2128 26.9805 28.4522 26.841C28.9871 26.5063 29.2546 26.4923 29.8881 26.7573C30.7046 27.106 30.8031 27.4686 30.8031 30.3555C30.8031 32.6427 30.775 32.9495 30.5216 33.3539C29.9866 34.2465 28.6633 34.2744 27.9876 33.4237C27.7342 33.1029 27.7061 32.8519 27.7061 30.3694C27.7061 28.7238 27.7624 27.5523 27.8609 27.3849ZM29.6769 30.3415C29.6769 28.7098 29.6206 27.9567 29.508 27.8451C29.4094 27.7475 29.3109 27.6778 29.2687 27.6917C28.8604 27.7475 28.8323 27.9009 28.8323 30.3276C28.8323 32.4893 28.8604 32.824 29.0575 32.8937C29.5924 33.1029 29.6769 32.7682 29.6769 30.3415Z" fill="#F49719"/>
<path id="Shape_6" fill-rule="evenodd" clip-rule="evenodd" d="M39.4745 27.3012C39.6293 27.092 39.925 26.827 40.108 26.7294C40.6148 26.4644 41.3468 26.6318 41.8536 27.1199L42.2759 27.5383V30.3275V33.1168L41.8113 33.5631C40.9385 34.4417 39.6012 34.0791 39.2352 32.8518C39.1507 32.5589 39.1085 31.4014 39.1366 30.0207C39.1788 27.9148 39.207 27.6638 39.4745 27.3012ZM41.1919 30.3973C41.2201 28.7934 41.1779 27.9985 41.0652 27.873C40.84 27.5941 40.5444 27.6359 40.3754 27.9427C40.1502 28.389 40.1924 32.4474 40.4317 32.7821C40.6007 32.9913 40.6851 33.0192 40.8963 32.8936C41.1215 32.7542 41.1497 32.4753 41.1919 30.3973Z" fill="#F49719"/>
<path id="Shape_7" fill-rule="evenodd" clip-rule="evenodd" d="M20.273 29.2955C20.4841 28.5843 21.6667 27.3849 22.3565 27.1617C24.6089 26.4644 26.7768 28.0125 26.7768 30.3275C26.7768 31.7501 26.1011 32.7821 24.7496 33.3818C23.4827 33.9536 22.2157 33.6886 21.1599 32.6287C20.1604 31.6524 19.8788 30.6065 20.273 29.2955ZM25.5239 31.2201C26.0166 30.1881 25.5098 28.8353 24.4259 28.3193C22.2438 27.3012 20.2167 29.9928 21.8074 31.7919C22.8773 32.9913 24.82 32.6984 25.5239 31.2201Z" fill="#F49719"/>
<path id="Shape_8" fill-rule="evenodd" clip-rule="evenodd" d="M31.6475 30.3275C31.6475 28.905 32.5203 27.6638 33.8576 27.1757C34.1814 27.0502 34.7164 26.9944 35.195 27.0362C37.3207 27.1896 38.7988 29.2118 38.2217 31.1783C37.5178 33.5212 34.8149 34.3998 32.8441 32.9076C32.1683 32.4055 31.6475 31.2898 31.6475 30.3275ZM35.8144 32.3497C37.56 31.6943 37.6726 29.2118 35.9974 28.3751C35.1387 27.9288 34.1955 28.0543 33.5057 28.6958C31.6897 30.3694 33.4916 33.2284 35.8144 32.3497Z" fill="#F49719"/>
<path id="Shape_9" fill-rule="evenodd" clip-rule="evenodd" d="M44.4306 32.9355C42.3472 31.3595 42.8962 28.0961 45.3879 27.1757C46.7816 26.6596 48.499 27.2872 49.3155 28.5703C49.6956 29.1839 49.7379 29.3792 49.7379 30.3275C49.7379 31.2759 49.6956 31.4711 49.3155 32.0848C48.2597 33.7583 46.0496 34.1488 44.4306 32.9355ZM47.6826 32.1684C49.0199 31.1922 49.0199 29.4629 47.6826 28.4727C46.7816 27.8172 45.2049 28.1658 44.5855 29.156C44.1772 29.8115 44.1772 30.8435 44.5855 31.499C45.219 32.4892 46.7816 32.8379 47.6826 32.1684Z" fill="#F49719"/>
<path id="Shape_10" fill-rule="evenodd" clip-rule="evenodd" d="M20.5264 38.4861C20.7235 38.2769 21.005 38.0538 21.1599 37.998C22.0186 37.6354 23.1448 38.1235 23.4405 38.9743C23.6516 39.5879 23.6798 44.2738 23.4827 44.9991C23.0604 46.4774 20.9769 46.6726 20.3152 45.2919C20.1322 44.9014 20.09 44.3296 20.1322 41.8472L20.1324 41.837C20.1745 38.8766 20.1749 38.8483 20.5264 38.4861ZM22.4691 41.889C22.441 39.7274 22.3846 39.2253 22.2157 39.1137C21.9201 38.9324 21.5963 38.9464 21.3992 39.1416C21.1599 39.3787 21.1599 44.7062 21.3992 44.9433C21.6667 45.2083 22.1876 45.1385 22.3565 44.8317C22.455 44.6365 22.4973 43.6184 22.4691 41.889Z" fill="#F49719"/>
<path id="Shape_11" fill-rule="evenodd" clip-rule="evenodd" d="M33.3794 38.9742C33.478 38.7093 33.7595 38.3606 34.027 38.1793C34.8717 37.6214 35.8008 37.8167 36.392 38.6814C36.7017 39.1416 36.7158 39.2671 36.7158 42.0006C36.7158 45.1524 36.6314 45.5429 35.8852 45.9892C34.8998 46.561 33.6469 46.0729 33.3372 44.999C33.1401 44.2738 33.1683 39.5879 33.3794 38.9742ZM35.4207 44.9432C35.66 44.7062 35.66 39.3787 35.4207 39.1416C35.1814 38.9045 34.8013 38.9324 34.5479 39.1974C34.3649 39.3787 34.3226 39.8389 34.3226 41.9866C34.3226 43.5068 34.379 44.6783 34.4634 44.8456C34.6323 45.1385 35.1673 45.1943 35.4207 44.9432Z" fill="#F49719"/>
<path id="Shape_12" fill-rule="evenodd" clip-rule="evenodd" d="M46.4297 42.0424C46.4297 38.7651 46.5001 38.4861 47.3306 38.0817C48.1894 37.6494 49.203 37.9283 49.5971 38.6953C49.9068 39.295 49.9068 44.7899 49.5971 45.3895C49.203 46.1566 48.119 46.4495 47.2743 46.0171C46.5001 45.6266 46.4297 45.2919 46.4297 42.0424ZM48.6539 42.1958C48.6821 40.2155 48.6399 39.295 48.5272 39.1695C48.4428 39.0579 48.2598 38.9743 48.1331 38.9743C47.5981 38.9743 47.5559 39.2253 47.5559 42.0564C47.5559 44.999 47.5981 45.1803 48.2879 45.0827L48.6117 45.0409L48.6539 42.1958Z" fill="#F49719"/>
<path id="Shape_13" fill-rule="evenodd" clip-rule="evenodd" d="M24.6513 41.6798C24.7921 40.2852 25.8197 39.0021 27.1712 38.5419C28.1003 38.2211 28.5789 38.2211 29.5221 38.5001C30.5638 38.7929 31.5352 39.7273 31.9434 40.7733C32.9148 43.3394 30.7891 46.045 28.0158 45.7661C25.9746 45.5569 24.4401 43.6881 24.6513 41.6798ZM31.0847 42.0424C31.0706 40.9546 30.2119 39.825 29.142 39.5321C28.4663 39.3508 28.1847 39.3647 27.5231 39.6018C26.0731 40.1039 25.3692 41.7216 26.0027 43.0884C26.96 45.1943 29.7051 45.2222 30.775 43.1581C30.9439 42.8234 31.0847 42.3213 31.0847 42.0424Z" fill="#F49719"/>
<path id="Shape_14" fill-rule="evenodd" clip-rule="evenodd" d="M37.8136 42.0982C37.7995 40.4804 38.8694 38.9603 40.3616 38.4861C41.8116 38.0259 43.6276 38.5838 44.5568 39.7971C45.4014 40.8849 45.5563 42.4608 44.9368 43.6881C43.7403 46.0729 40.5728 46.5192 38.785 44.5667C38.0952 43.8136 37.8277 43.1163 37.8136 42.0982ZM44.1485 41.889C44.0781 40.857 43.6276 40.2015 42.7126 39.7413C41.7272 39.2532 40.8544 39.309 39.9534 39.9505C39.1651 40.5083 38.7287 41.7217 38.982 42.67C39.8126 45.7521 44.3737 45.0688 44.1485 41.889Z" fill="#F49719"/>
<path id="Shape_15" fill-rule="evenodd" clip-rule="evenodd" d="M27.8609 49.699C27.9313 49.5455 28.2128 49.2945 28.4522 49.1551C28.9871 48.8203 29.2546 48.8064 29.8881 49.0714C30.7046 49.42 30.8031 49.7966 30.8031 52.6416C30.8031 55.5006 30.7186 55.7935 29.874 56.1979C29.4376 56.3932 29.2687 56.4071 28.8182 56.2816C28.5226 56.1979 28.1565 55.9608 28.0017 55.7516C27.7201 55.4169 27.7061 55.2077 27.7061 52.6835C27.7061 51.0378 27.7624 49.8663 27.8609 49.699ZM29.6769 52.6556C29.6769 51.0239 29.6206 50.2708 29.508 50.1592C29.325 49.9779 29.0716 49.936 28.9308 50.0895C28.8745 50.1313 28.8323 51.2888 28.8323 52.6556C28.8323 54.8033 28.8604 55.138 29.0575 55.2077C29.5924 55.4169 29.6769 55.0822 29.6769 52.6556Z" fill="#F49719"/>
<path id="Shape_16" fill-rule="evenodd" clip-rule="evenodd" d="M39.5315 49.5037C39.7286 49.2945 40.0101 49.0714 40.165 49.0016C40.6577 48.7925 41.3897 48.9738 41.8543 49.434L42.2766 49.8524V52.6416V55.4309L41.8543 55.8493C41.2771 56.4071 40.6014 56.5187 39.982 56.1282C39.1936 55.6401 39.081 55.1659 39.1373 52.3488C39.1796 49.936 39.1936 49.8663 39.5315 49.5037ZM41.1926 52.7114C41.2208 51.1075 41.1786 50.3126 41.066 50.1871C40.8407 49.9082 40.5451 49.95 40.3762 50.2568C40.1509 50.7031 40.1931 54.7615 40.4325 55.0962C40.6014 55.3054 40.6859 55.3333 40.897 55.2077C41.1223 55.0683 41.1504 54.7894 41.1926 52.7114Z" fill="#F49719"/>
<path id="Shape_17" fill-rule="evenodd" clip-rule="evenodd" d="M20.2729 51.6096C20.4841 50.8983 21.6666 49.699 22.3564 49.4758C24.6088 48.7785 26.7768 50.3265 26.7768 52.6416C26.7768 54.1897 25.7772 55.5006 24.2991 55.8493C21.737 56.4629 19.5268 54.1339 20.2729 51.6096ZM25.4253 53.6876C26.0588 52.6137 25.5379 51.0796 24.3836 50.6055C22.6802 49.8942 20.9487 51.3167 21.2865 53.1297C21.4695 54.0641 22.4972 54.873 23.5108 54.873C24.1724 54.873 25.0452 54.3291 25.4253 53.6876Z" fill="#F49719"/>
<path id="Shape_18" fill-rule="evenodd" clip-rule="evenodd" d="M31.9994 54.1338C31.0984 52.3348 31.9712 50.1591 33.8576 49.4897C36.279 48.639 38.827 50.8425 38.2639 53.297C37.5741 56.3652 33.4072 56.9231 31.9994 54.1338ZM35.927 54.608C37.56 53.8131 37.6445 51.6095 36.0678 50.7309C35.2091 50.2428 34.2096 50.3544 33.5057 51.0099C31.6334 52.7392 33.6465 55.6958 35.927 54.608Z" fill="#F49719"/>
<path id="Shape_19" fill-rule="evenodd" clip-rule="evenodd" d="M43.1631 52.6416C43.1631 51.2748 43.8529 50.201 45.0917 49.6152C46.0631 49.155 47.2878 49.2247 48.231 49.8105C49.681 50.703 50.2159 52.5719 49.4557 54.1059C48.597 55.8492 46.4854 56.4768 44.7961 55.5006C43.698 54.859 43.1631 53.9246 43.1631 52.6416ZM48.1747 51.233C47.9494 50.9959 47.5694 50.703 47.316 50.6054C46.6543 50.3265 46.0067 50.3683 45.3733 50.7449C44.6271 51.1912 44.2893 51.7909 44.2893 52.6555C44.2893 53.5341 44.7257 54.2175 45.5563 54.608C46.6121 55.124 47.6397 54.8033 48.3718 53.7433C48.6533 53.3528 48.6956 53.1297 48.6533 52.4603C48.597 51.8188 48.5125 51.5817 48.1747 51.233Z" fill="#F49719"/>
</g>
<g id="webpage_5792780">
<g id="Group">
<path id="Shape_20" fill-rule="evenodd" clip-rule="evenodd" d="M8.13808 16.8973C7.67352 15.4748 8.67303 13.8152 10.1934 13.4665C12.3613 12.9784 14.2618 15.168 13.4172 17.1902C12.3895 19.6029 8.95458 19.4076 8.13808 16.8973ZM11.6575 17.5667C12.6288 17.0647 12.7555 15.5864 11.8968 14.8611C11.2774 14.3591 10.0949 14.4567 9.58807 15.0424C8.36332 16.451 9.99632 18.4174 11.6575 17.5667Z" fill="#F49719"/>
</g>
</g>
</g>
</svg>
