<svg width="70" height="70" viewBox="0 0 70 70" fill="none" xmlns="http://www.w3.org/2000/svg">
<g id="Group 3">
<g id="user_5792802">
<g id="Group">
<path id="Shape" fill-rule="evenodd" clip-rule="evenodd" d="M21.5929 6.23982C24.6087 4.6126 28.1502 3.5044 31.4704 3.1537C37.7233 2.48037 44.1423 4.03745 49.3439 7.47427C51.5988 8.96122 52 9.48025 52 10.9111C52 12.3279 50.8103 13.5203 49.3992 13.5203C48.6245 13.5203 48.2925 13.366 46.8399 12.384C45.1798 11.2618 43.1739 10.2518 41.4308 9.66261C34.832 7.44622 27.8597 8.42816 21.9941 12.398C20.6383 13.3239 20.0296 13.5062 19.0059 13.3239C18.0099 13.1275 17 11.8229 17 10.7147C17 10.0834 17.2905 9.25581 17.664 8.849C18.0375 8.41414 20.168 6.99733 21.5929 6.23982ZM45.7055 6.70274C43.0217 5.39815 40.2411 4.6126 37.17 4.27593C31.1245 3.60259 24.913 5.17371 19.7115 8.68066C18.3419 9.6065 18.0375 10.0414 18.1482 10.9111C18.2589 11.7107 18.8676 12.2578 19.6561 12.2578C20.1265 12.2578 20.4585 12.1035 21.5514 11.36C29.4506 6.01538 39.4664 6.05746 47.504 11.4722C49.1779 12.6085 49.6759 12.6786 50.4229 11.9211C50.8241 11.5143 50.8933 11.346 50.8933 10.7708C50.8933 10.1816 50.8379 10.0554 50.3538 9.57845C49.6206 8.87705 47.5593 7.60052 45.7055 6.70274Z" fill="#F49719"/>
<path id="Shape_2" fill-rule="evenodd" clip-rule="evenodd" d="M23.8204 14.2357C26.103 12.6786 28.8698 11.5984 31.7335 11.1495C33.1307 10.9251 37.0872 11.0654 38.5121 11.402C40.9608 11.9631 42.9528 12.8188 45.0418 14.2076C46.356 15.0773 46.7295 15.4982 47.02 16.3679C47.3106 17.2937 46.854 18.6965 46.0793 19.2576C45.526 19.6504 44.5438 19.8889 43.9627 19.7766C43.686 19.7346 42.8837 19.3137 42.192 18.8508C40.7671 17.925 39.3698 17.2937 37.7789 16.8589C36.1742 16.41 32.7572 16.424 31.111 16.8589C29.8521 17.2096 27.7216 18.2055 26.2829 19.1314C25.5497 19.5943 25.273 19.6925 24.692 19.6925C23.7098 19.6925 22.8797 19.2436 22.3679 18.444C22.0082 17.8689 21.9667 17.7005 22.0082 16.8729C22.0635 15.7086 22.4232 15.2036 23.8204 14.2357ZM44.5438 15.1895C42.6208 13.899 40.5319 13.0012 38.1663 12.4541C36.8382 12.1455 32.854 12.0754 31.4015 12.3279C29.0912 12.7487 26.4212 13.8288 24.443 15.1615C23.2947 15.919 23.0872 16.2136 23.0872 16.9991C23.0872 17.5182 23.1702 17.7005 23.5576 18.0933C24.2355 18.7807 24.8442 18.7526 26.0062 17.9811C27.3619 17.0973 29.2987 16.2136 30.7928 15.8068C31.9963 15.4841 32.4113 15.428 34.4311 15.428C36.3955 15.428 36.8936 15.4701 37.9588 15.7507C39.6189 16.1855 41.2928 16.943 42.8007 17.925C43.8936 18.6404 44.1149 18.7246 44.5853 18.6684C45.2493 18.5703 45.858 18.0091 45.9825 17.3639C46.1208 16.5643 45.7473 15.9891 44.5438 15.1895Z" fill="#F49719"/>
<path id="Shape_3" fill-rule="evenodd" clip-rule="evenodd" d="M27.2923 21.7405C28.15 20.4079 31.318 18.963 33.7389 18.8087C37.0176 18.6123 40.9464 20.1694 41.8595 22.0492C42.15 22.6664 42.2053 22.9049 42.1361 23.494C42.0255 24.4058 41.6104 25.0792 40.8911 25.5C39.7567 26.1593 38.9543 26.1032 37.6816 25.2896C36.644 24.6303 35.648 24.3217 34.4859 24.3217C33.2962 24.3217 32.48 24.5742 31.2626 25.3176C30.5156 25.7665 30.2389 25.8647 29.6302 25.8647C28.316 25.8647 27.3061 25.0792 26.9741 23.8026C26.7942 23.1574 26.9326 22.2876 27.2923 21.7405ZM40.6006 22.0912C40.0472 21.5021 38.2903 20.6043 37.0452 20.2676C34.6243 19.6223 32.3278 19.8608 30.0729 20.983C28.1223 21.965 27.6381 22.7646 28.2468 24.013C28.6342 24.8267 29.7547 24.9529 30.7646 24.3076C32.1203 23.4379 32.6875 23.2836 34.4998 23.2696C36.0907 23.2696 36.2014 23.2836 37.1006 23.7185C37.6263 23.971 38.2073 24.2936 38.4148 24.4339C38.9682 24.8267 39.48 24.9108 39.9919 24.7004C40.7251 24.3778 41.0018 23.971 41.0018 23.1994C41.0018 22.6383 40.9326 22.4419 40.6006 22.0912Z" fill="#F49719"/>
<path id="Shape_4" fill-rule="evenodd" clip-rule="evenodd" d="M30.3503 28.9649C31.9689 27.5341 32.2317 27.3657 33.1309 27.0711C34.1131 26.7485 35.5657 26.8467 36.5202 27.2956C36.9214 27.492 37.793 28.1232 38.4432 28.6984C41.376 31.3075 42.8424 32.023 45.8859 32.3175C46.7021 32.3877 47.6704 32.556 48.0578 32.6963C48.9985 33.0049 50.2021 34.2253 50.5341 35.1932C50.7969 35.9788 51.8621 46.4576 51.8621 48.2672C51.8621 52.3212 50.1191 56.5296 47.2277 59.4614C45.6507 61.0746 44.8621 61.5796 39.8957 64.315C35.953 66.4753 35.3859 66.7418 34.6942 66.7979C34.5358 66.8103 34.4144 66.8244 34.293 66.8235C33.7253 66.8195 33.1598 66.488 28.8285 64.1186C24.5123 61.7619 23.627 61.1868 22.2021 59.8121C19.3246 57.0486 17.6645 53.5837 17.2633 49.5016C17.125 48.0708 17.1527 47.5237 17.6783 41.9967C18.0104 38.6441 18.3562 35.7403 18.4669 35.3616C18.7989 34.3235 19.6151 33.3977 20.625 32.8927C21.3305 32.542 21.787 32.4298 22.9906 32.3175C26.1724 32.023 27.5973 31.3777 30.3503 28.9649ZM38.1665 29.9328C37.3641 29.2174 36.4649 28.516 36.1606 28.3617C35.4412 27.9829 34.0163 27.8988 33.2416 28.1934C32.9096 28.3056 31.9412 29.035 31.0005 29.8486C28.1368 32.3596 26.4491 33.1312 23.1428 33.4538C22.2159 33.538 21.4827 33.6923 21.1645 33.8466C20.459 34.2253 19.8088 34.9267 19.5598 35.6001C19.3938 36.077 18.8681 40.9867 18.3009 47.3413C18.204 48.5337 18.453 50.708 18.8819 52.2371C19.8226 55.5196 22.0222 58.6337 24.7475 60.5135C25.1625 60.794 27.4313 62.0846 29.7831 63.3611C33.0064 65.1286 34.1685 65.7038 34.542 65.7038C34.9155 65.7038 36.0914 65.1286 39.3977 63.305C41.8048 61.9864 44.1843 60.5836 44.6961 60.2049C45.9965 59.2369 47.7949 57.245 48.5973 55.8983C48.9708 55.2671 49.4827 54.1729 49.7455 53.4715C50.8938 50.3714 50.9491 49.0247 50.2159 41.618C49.8977 38.4196 49.5795 35.7824 49.4689 35.5159C48.9293 34.1973 47.9748 33.6362 45.955 33.4398C42.6487 33.1312 40.8779 32.3316 38.1665 29.9328Z" fill="#F49719"/>
<path id="Shape_5" fill-rule="evenodd" clip-rule="evenodd" d="M32.9787 32.3316C30.0874 34.9267 27.5558 36.1331 24.1526 36.5399C23.3779 36.6241 22.6724 36.7784 22.5894 36.8626C22.4925 36.9467 22.2158 39.2613 21.9115 42.3474C21.2198 49.5297 21.2751 50.3994 22.7415 53.4435C23.3502 54.706 23.6822 55.225 24.54 56.1368C25.121 56.7681 26.0202 57.5536 26.5182 57.8903C27.4313 58.5075 34.3621 62.3371 34.5419 62.3371C34.8601 62.3231 42.3996 58.0306 43.1882 57.4133C44.4609 56.4033 45.6921 54.8322 46.4115 53.2892C47.7119 50.4836 47.8087 49.0668 47.1032 42.0108C46.785 38.7283 46.5498 36.9748 46.4392 36.8626C46.3423 36.7784 45.6645 36.6241 44.9313 36.5399C42.4411 36.2594 39.8404 35.2774 38.0834 33.9588C37.6407 33.6221 36.7139 32.8646 36.0498 32.2755C35.3028 31.6162 34.7079 31.1953 34.5281 31.1953C34.3483 31.2094 33.7119 31.6723 32.9787 32.3316ZM35.7732 33.5099C38.6368 36.049 40.9056 37.073 45.0973 37.7183L45.5815 37.7884L46.038 42.5719C46.5775 48.1409 46.5775 49.5437 46.0103 51.3253C46.0012 51.3534 45.9922 51.3811 45.9834 51.4084C45.6925 52.3085 45.5605 52.7166 45.3131 52.8065C45.1078 52.881 44.8231 52.7365 44.3022 52.4723C44.2862 52.4641 44.2699 52.4559 44.2534 52.4475C38.8443 49.684 30.5024 49.6559 24.8996 52.3914C24.2633 52.714 23.6961 52.9104 23.6269 52.8403C23.3087 52.5176 22.6447 50.0207 22.5755 48.8844C22.5202 47.8464 23.1427 40.0329 23.4332 38.2513C23.4362 38.2332 23.439 38.2158 23.4417 38.1991C23.4612 38.0769 23.4752 37.9891 23.5194 37.9208C23.6327 37.7461 23.9439 37.6997 25.0521 37.5346C25.1098 37.526 25.1696 37.5171 25.2317 37.5079C28.1091 37.087 30.8483 35.7123 33.3937 33.4538C34.0024 32.9067 34.5143 32.4578 34.5419 32.4578C34.5629 32.4578 34.8784 32.7322 35.3193 33.1157L35.3202 33.1165C35.4603 33.2384 35.6131 33.3713 35.7732 33.5099ZM40.8779 52.3212C40.2 52.1248 39.0241 51.8723 38.2494 51.7601C34.2514 51.185 30.4609 51.4936 27.1131 52.686C25.7712 53.1629 24.3324 53.8923 24.3324 54.0887C24.3324 54.1729 24.9411 54.8322 25.6882 55.5897C26.9886 56.8943 27.1269 56.9925 30.0736 58.6057C31.7475 59.5175 33.4352 60.4433 33.8087 60.6678L34.5143 61.0606L38.0696 59.1107C40.0202 58.0446 41.9985 56.8803 42.455 56.5156C43.285 55.8703 44.6684 54.3272 44.6684 54.0467C44.6684 53.8222 42.2336 52.714 40.8779 52.3212Z" fill="#F49719"/>
<path id="Shape_6" fill-rule="evenodd" clip-rule="evenodd" d="M29.5613 40.6781C30.2115 39.2332 31.4289 38.111 32.8953 37.62C33.4764 37.4237 33.9606 37.3816 34.8044 37.4237C36.2017 37.4938 37.1839 37.9146 38.2076 38.8966C40.5179 41.113 40.4625 44.6901 38.0693 46.9065C37.0455 47.8604 36.0772 48.211 34.4862 48.2251C33.3104 48.2391 33.172 48.211 32.1898 47.706C30.9862 47.1028 30.2254 46.3313 29.6305 45.0969C29.2847 44.3955 29.2432 44.157 29.2432 42.8384C29.2432 41.6039 29.2985 41.2532 29.5613 40.6781ZM38.6641 43.8063C39.1898 41.7162 38.0554 39.5559 36.008 38.7703C33.7807 37.9287 31.2768 39.121 30.4744 41.3935C29.9764 42.8244 30.4052 44.7602 31.4566 45.8403C33.8914 48.2952 37.8064 47.201 38.6641 43.8063Z" fill="#F49719"/>
</g>
</g>
</g>
</svg>
