<svg width="70" height="70" viewBox="0 0 70 70" fill="none" xmlns="http://www.w3.org/2000/svg">
<g id="Group 10">
<g id="Group 5">
<path id="Shape" fill-rule="evenodd" clip-rule="evenodd" d="M32.8476 4.15909C33.0575 3.83548 33.4633 3.46966 33.8272 3.28674C34.5409 2.93499 35.2826 2.90685 35.9963 3.20232C36.668 3.48373 36.9899 3.7792 37.3118 4.42643C37.5497 4.90481 37.5777 5.28471 37.5777 8.38014V11.7992L37.1718 12.4323C36.682 13.2203 35.9543 13.6142 34.9747 13.6002C34.1351 13.6002 33.5193 13.2765 32.9036 12.5168L32.4697 11.968V8.352V4.73597L32.8476 4.15909ZM36.4581 8.29572C36.4581 4.77818 36.4301 4.66562 35.6604 4.27166C35.0727 3.97618 34.4989 4.08874 33.9951 4.59527L33.5193 5.07365V8.16908C33.5193 9.88564 33.5753 11.4334 33.6592 11.6303C34.0231 12.5871 35.3666 12.7982 36.0803 11.9962L36.4581 11.5741V8.29572Z" fill="#F49719"/>
<path id="Shape_2" fill-rule="evenodd" clip-rule="evenodd" d="M16.7117 9.01329C16.9217 8.39421 17.6634 7.66256 18.3491 7.42337C18.657 7.31081 19.0068 7.22639 19.1608 7.21231C19.7065 7.21231 20.5182 7.55 20.966 7.98617C21.5258 8.53491 24.2687 13.3328 24.4226 14.0223C24.7585 15.5559 23.471 17.2021 21.9037 17.2021C21.3019 17.2021 20.4063 16.7941 19.9864 16.3438C19.8185 16.1609 19.0068 14.8383 18.1812 13.4032C16.5858 10.6314 16.3759 10.0123 16.7117 9.01329ZM21.9736 11.6866C21.2179 10.364 20.4343 9.09771 20.2383 8.87259C19.7625 8.36607 19.1748 8.25351 18.545 8.57712C17.9433 8.88666 17.6774 9.37912 17.7613 10.0263C17.8453 10.7439 20.5182 15.3589 21.078 15.7529C21.7917 16.2594 22.6454 16.1046 23.1072 15.4011C23.555 14.7117 23.415 14.2333 21.9736 11.6866Z" fill="#F49719"/>
<path id="Shape_3" fill-rule="evenodd" clip-rule="evenodd" d="M23.6531 21.2543C26.4939 19.3549 29.4327 18.3137 33.2392 17.8494C33.5051 17.8212 34.5826 17.8071 35.6182 17.8353C38.795 17.9197 41.272 18.5529 44.2248 20.0162C50.4802 23.1257 54.7345 29.3165 55.4902 36.3657C55.5602 37.1255 55.6302 40.8118 55.6302 44.5686V44.5688C55.6302 51.3363 55.6302 51.3926 55.9101 51.3926C56.4278 51.3926 57.5474 52.068 58.1352 52.7574C58.541 53.2076 58.7929 53.686 58.9468 54.2488C59.0728 54.7131 59.2547 55.093 59.3247 55.1212C61.3679 55.6699 62.6274 57.1754 62.6274 59.0749C62.6274 60.2005 62.3055 61.0869 61.6338 61.8608C61.102 62.4658 59.8705 63.2115 59.3947 63.2115C59.2267 63.2115 59.1288 63.3663 59.0588 63.7462C58.8489 64.9984 57.6873 66.3491 56.4278 66.8275C56.092 66.9542 50.6902 66.9964 34.9885 66.9964C14.1789 67.0104 13.9969 66.9964 13.3672 66.715C12.1917 66.1803 11.1561 64.8718 10.9322 63.6336C10.8622 63.2115 10.7502 63.0989 10.2185 62.8879C8.18928 62.0437 7.25166 59.4407 8.23126 57.4146C8.65109 56.5423 9.28084 55.9232 10.1905 55.4589C10.8762 55.1071 10.9322 55.0368 11.0441 54.3614C11.1421 53.686 11.8138 52.6448 12.4576 52.1524C12.7374 51.9413 13.2972 51.6458 13.6891 51.5192L14.4168 51.266L14.5007 43.2741C14.5707 35.831 14.5987 35.1978 14.8646 34.0863C16.1941 28.6412 19.2308 24.195 23.6531 21.2543ZM54.1048 34.621C52.3415 26.6854 46.5618 20.8885 38.8089 19.3127C37.4655 19.0312 34.2748 18.8343 33.3092 18.975C31.3919 19.2423 30.6082 19.3971 29.4187 19.7488C26.312 20.6775 23.681 22.2815 21.274 24.7156C18.937 27.0653 17.5375 29.3447 16.5299 32.412C15.6623 35.0712 15.6063 35.6903 15.6063 43.8932L15.6063 51.2519H23.807H32.0077L31.9517 48.7474C31.8957 45.9052 31.7838 45.5535 30.6642 44.1042C29.1109 42.1063 28.831 39.8269 29.8945 37.7023C31.6158 34.2974 36.0661 33.4954 38.9069 36.0843C41.132 38.1104 41.3839 41.642 39.4667 44.0058C38.2492 45.4972 38.2072 45.6379 38.1652 48.6067L38.1092 51.2519L46.3239 51.2519H54.5386L54.4686 43.6118C54.4127 36.4219 54.3987 35.9014 54.1048 34.621ZM37.1156 36.1968C38.1092 36.6893 38.725 37.3506 39.2428 38.448C39.5367 39.0812 39.6066 39.433 39.6066 40.3475C39.6066 41.6701 39.3407 42.3736 38.3611 43.6259C37.1856 45.1314 37.0876 45.455 37.0457 48.5363L36.9897 51.2519H35.0585H33.1272L33.0713 48.677C32.9873 45.7082 32.8054 45.0188 31.7418 43.6962C30.4403 42.0922 30.0765 40.446 30.6362 38.7717C30.9021 37.9556 31.8398 36.8159 32.6374 36.3094C33.9389 35.5215 35.6462 35.4652 37.1156 36.1968ZM57.9252 54.6569C57.7013 53.7282 56.8897 52.8699 55.9241 52.5323C55.3643 52.3494 14.7946 52.3212 14.1789 52.5182C13.1713 52.8277 12.4016 53.6157 12.1077 54.6287L11.9818 55.0508H35.0025L58.0092 55.0508L57.9252 54.6569ZM59.6605 56.4016C60.3183 56.6689 60.8921 57.2176 61.2559 57.9211C61.4798 58.3573 61.5218 58.6668 61.4798 59.3563C61.4098 60.4256 60.906 61.2698 60.0384 61.7623L59.4786 62.0859L35.2964 62.0859C11.5059 62.0859 11.1141 62.0859 10.5823 61.8045C9.47676 61.2417 8.76305 59.8628 8.95897 58.695C9.11291 57.8086 9.74265 56.9644 10.5823 56.5423L11.324 56.1764H35.2264C56.5258 56.1764 59.1987 56.2046 59.6605 56.4016ZM56.148 65.7301C56.8757 65.4627 57.6594 64.5482 57.9252 63.6758L58.0232 63.3522L35.0445 63.3522H12.0797L12.1637 63.8025C12.2756 64.4075 12.9054 65.1673 13.5911 65.5612L14.1369 65.8848H34.9465C49.2767 65.8848 55.8681 65.8426 56.148 65.7301Z" fill="#F49719"/>
</g>
<g id="sirens_5792747">
<g id="Group">
<path id="Shape_4" fill-rule="evenodd" clip-rule="evenodd" d="M47.1499 11.0112C48.7732 8.18315 49.1371 7.71883 49.9767 7.40929C51.6421 6.7902 53.3914 8.05652 53.3914 9.88563C53.3914 10.6314 53.3074 10.8143 51.88 13.3469C51.0403 14.8102 50.1587 16.2031 49.9208 16.4564C48.7312 17.6664 46.5901 17.2865 45.8344 15.7247C45.2746 14.5569 45.4146 14.0223 47.1499 11.0112ZM50.8584 12.8404C52.4537 10.0545 52.5657 9.64644 51.894 8.90072C51.3902 8.36606 50.8024 8.2535 50.1867 8.57711C49.7948 8.78816 49.417 9.32283 48.1995 11.4334C46.4781 14.4022 46.3802 14.7539 47.0799 15.5418C47.4298 15.9358 47.5837 16.0061 48.1295 16.0061C48.9971 16.0061 49.1791 15.7951 50.8584 12.8404Z" fill="#F49719"/>
<path id="Shape_5" fill-rule="evenodd" clip-rule="evenodd" d="M5.02649 21.9156C4.85856 20.7759 5.5023 19.6503 6.57987 19.1579C7.29358 18.8343 7.96531 18.8202 8.67902 19.1579C9.70061 19.6222 13.717 22 14.0948 22.3799C14.9065 23.1397 15.0884 24.4623 14.5427 25.5176C14.2628 26.0804 13.3531 26.7135 12.6954 26.8261C11.8837 26.9527 11.282 26.6995 8.46911 25.0814C5.67023 23.4633 5.19443 23.0272 5.02649 21.9156ZM13.5631 23.5618C13.3391 23.1538 12.8214 22.788 10.6522 21.5357C9.07086 20.6352 7.85335 20.0162 7.64344 20.0302C6.32797 20.0584 5.65624 21.5639 6.52389 22.4925C6.69182 22.6754 7.93732 23.4633 9.29477 24.2513C11.128 25.3206 11.8837 25.7005 12.2616 25.7005C13.3811 25.7146 14.1088 24.5467 13.5631 23.5618Z" fill="#F49719"/>
<path id="Shape_6" fill-rule="evenodd" clip-rule="evenodd" d="M56.1479 22.1548C56.6657 21.8031 61.1439 19.2001 61.5497 19.0312C61.7177 18.9468 62.1795 18.9187 62.5853 18.9328C64.8524 19.0735 65.846 21.9578 64.1387 23.4774C63.9708 23.6322 62.6273 24.4483 61.1859 25.2925C58.7928 26.6713 58.485 26.812 57.8132 26.8261C56.8756 26.8402 55.966 26.3196 55.5182 25.5317C54.9164 24.4483 55.2243 22.802 56.1479 22.1548ZM63.8868 21.4091C63.8868 21.0996 63.7468 20.8322 63.411 20.4945C62.6553 19.7348 62.3614 19.8051 59.5485 21.4372C58.2051 22.2252 56.9316 23.0272 56.7217 23.2241C55.84 24.0402 56.4698 25.6583 57.6733 25.6864C58.1351 25.7005 58.6529 25.4613 60.85 24.1809C63.6069 22.5769 63.8868 22.3237 63.8868 21.4091Z" fill="#F49719"/>
</g>
</g>
</g>
</svg>
