<svg width="70" height="70" viewBox="0 0 70 70" fill="none" xmlns="http://www.w3.org/2000/svg">
<g id="Group 9">
<g id="Group 6">
<path id="Shape" fill-rule="evenodd" clip-rule="evenodd" d="M6.94563 4.77569C7.83638 3.91729 8.57161 3.5092 9.68858 3.19962C10.2966 3.04483 12.8274 3.00261 24.4496 3.00261C34.2055 2.98854 38.7016 3.03076 39.2248 3.14333C40.8507 3.48106 42.5333 4.73347 43.3392 6.19696C44.1027 7.60416 44.1451 8.01225 44.1451 16.3147V23.9418L52.6709 23.984L61.1825 24.0262L61.9884 24.4062C63.1195 24.9268 64.0951 25.8837 64.59 26.9532L65 27.8257V35.0728V42.3198L64.6041 43.122C64.0951 44.1492 63.1761 45.078 62.1298 45.5846L61.3239 45.9786L52.7416 46.0208L44.1451 46.063V53.6338C44.1451 58.1931 44.0886 61.5141 44.0037 61.9644C43.6361 63.9063 42.2788 65.6653 40.5114 66.4956L39.55 66.9459L24.9162 66.9881C10.6076 67.0162 10.2683 67.0162 9.34925 66.7348C7.52533 66.186 5.94177 64.624 5.29138 62.7383C5.06516 62.0629 5.05102 60.2617 5.0086 35.6356C4.98032 17.4264 5.02274 8.94101 5.12171 8.26555C5.33379 6.92871 5.97005 5.70444 6.94563 4.77569ZM42.4909 7.05536C41.9394 5.94366 41.0487 5.08527 39.9317 4.56461L39.1258 4.18466L24.7748 4.15652C13.1809 4.14245 10.3107 4.17059 9.82997 4.31131C8.33124 4.78976 7.07288 5.92959 6.50732 7.3368L6.18213 8.12483L6.13971 34.5099C6.11144 53.8448 6.13971 61.1201 6.25282 61.7392C6.3518 62.1895 6.56388 62.865 6.74769 63.2309C7.21427 64.1174 8.47263 65.2432 9.44822 65.595C10.2259 65.8905 10.339 65.8905 24.7465 65.8623L39.2672 65.8201L40.0448 65.4543C41.1052 64.9617 41.9677 64.0752 42.4909 62.9635L42.9433 62.0207V54.07V46.1193L41.8546 46.0771L40.7659 46.0349L40.7235 53.9152L40.6811 61.7815L40.2569 62.4006C40.0165 62.7243 39.5641 63.1464 39.2672 63.3153L38.7016 63.639L24.591 63.639C10.7773 63.639 10.4662 63.639 9.92894 63.3575C9.26441 63.0198 8.74127 62.3584 8.52919 61.5985C8.33124 60.8527 8.30297 9.1943 8.51505 8.4907C8.74127 7.68859 9.25027 7.0835 9.99964 6.71763C10.7207 6.36583 10.7349 6.36583 14.1706 6.39397L17.6346 6.43619L17.9316 7.05536L17.9444 7.08303C18.0619 7.3354 18.1526 7.5305 18.2915 7.68134C18.7647 8.19535 19.7963 8.19532 24.3431 8.1952H24.3432L24.5627 8.19519L24.7782 8.19519H24.7782C29.3227 8.19532 30.3586 8.19534 30.8543 7.67785C31.0007 7.52504 31.1 7.32711 31.2286 7.07073L31.2504 7.02721L31.5756 6.35175L35.2235 6.39397L38.8713 6.43619L39.4368 6.81613C39.8045 7.05536 40.1438 7.44937 40.3842 7.92782L40.7518 8.67364V16.3147V23.9559H41.8829H43.0281L42.9857 15.9629L42.9433 7.98411L42.4909 7.05536ZM17.1115 7.97004C17.267 8.2374 17.6771 8.63142 18.0023 8.85657L18.6102 9.25059H24.5486C30.3031 9.25059 30.5152 9.23652 30.9959 8.95508C31.2646 8.80029 31.6746 8.40627 31.9149 8.09668L32.3391 7.50566L35.3083 7.50566C38.5744 7.49158 38.7582 7.5338 39.2955 8.32183L39.6207 8.80029V16.371V23.9418L32.2401 23.984L24.8455 24.0262L24.0537 24.4202C23.1064 24.8705 21.9187 26.0667 21.4804 27.0095C21.1694 27.6849 21.1694 27.7272 21.1694 35.0024V42.3198L21.5511 43.0938C22.3853 44.7824 23.7427 45.7816 25.5666 46.0489C26.1039 46.1193 29.4831 46.1897 33.0885 46.1897H39.6207V53.6619C39.6207 60.2898 39.5924 61.1904 39.3944 61.6126C39.3712 61.6617 39.3514 61.7082 39.3327 61.7521C39.2971 61.8356 39.2654 61.91 39.2214 61.9762C38.8632 62.5161 37.6908 62.5159 26.9616 62.5135C26.2099 62.5134 25.4112 62.5132 24.5627 62.5132C11.9225 62.5132 10.7207 62.4991 10.3531 62.274C10.305 62.2464 10.2599 62.2263 10.2176 62.2074C10.1788 62.1902 10.1424 62.174 10.1081 62.154C9.57208 61.8412 9.57225 60.6094 9.57502 40.0919C9.57524 38.5084 9.57547 36.81 9.57547 34.9883L9.57547 8.63142L9.87239 8.2374C10.3955 7.5338 10.6217 7.49158 13.8454 7.49158H16.8287L17.1115 7.97004ZM63.4871 27.2628C63.0488 26.4325 62.5398 25.94 61.6774 25.4897L61.0411 25.152L43.5089 25.1379C33.8661 25.1238 25.7504 25.152 25.4817 25.2083C24.6334 25.3771 23.9406 25.7852 23.3043 26.5029C22.3005 27.6146 22.3005 27.6427 22.3005 35.2135V41.8977L22.6964 42.6998C23.1205 43.5582 23.6013 44.0366 24.5486 44.5432L25.1283 44.8528H43.1554L61.1825 44.8528L61.7622 44.5432C62.0874 44.3744 62.6105 43.9381 62.9216 43.5863C63.1229 43.3585 63.2849 43.1762 63.4151 42.9734C63.9521 42.1365 63.9454 40.9507 63.9113 34.7772L63.8689 27.9664L63.4871 27.2628Z" fill="#F49719"/>
<path id="Path" d="M21.3675 5.78887C21.0847 6.01402 21.0564 6.11253 21.1837 6.32361C21.3251 6.54876 21.622 6.57691 24.4922 6.61912C27.6593 6.64727 28.0269 6.60505 28.0269 6.14067C28.0269 6.04217 27.928 5.85923 27.8007 5.74666C27.6169 5.54965 27.122 5.5215 24.6336 5.5215C21.9331 5.5215 21.6644 5.54965 21.3675 5.78887Z" fill="#F49719"/>
<path id="Path_2" d="M16.9422 57.6302C16.7867 57.7428 16.7019 57.9539 16.7443 58.165L16.7867 58.5027H24.5631H32.3395L32.3819 58.165C32.495 57.4473 32.495 57.4473 24.5631 57.4473C18.7237 57.4473 17.1402 57.4895 16.9422 57.6302Z" fill="#F49719"/>
<path id="Shape_2" fill-rule="evenodd" clip-rule="evenodd" d="M28.2245 32.2865C28.7052 31.7658 29.2142 31.4703 30.0767 31.1748C30.7695 30.9497 31.9713 31.0482 32.7489 31.4C33.6397 31.794 34.1911 32.3287 34.6577 33.2715C35.4636 34.8617 35.1808 36.5503 33.8942 37.845C32.7348 38.9848 31.2078 39.3084 29.6949 38.7315C27.0226 37.7183 26.2591 34.3551 28.2245 32.2865ZM33.7386 33.8626C33.4276 33.2153 32.5368 32.4554 31.8864 32.2724C31.1936 32.0754 30.9108 32.0895 30.2322 32.3287C29.497 32.582 29.0021 32.962 28.6769 33.5108C27.461 35.5934 29.0304 38.0842 31.434 37.859C33.3003 37.6761 34.5304 35.5371 33.7386 33.8626Z" fill="#F49719"/>
<path id="Shape_3" fill-rule="evenodd" clip-rule="evenodd" d="M40.4127 37.7675C41.0348 38.3304 41.4024 38.5415 42.2366 38.7666C42.8446 38.9355 44.0888 38.7948 44.7958 38.4852C45.121 38.3304 45.6441 37.9504 45.9693 37.6268C47.8215 35.7271 47.2984 32.5608 44.9372 31.3225C44.3292 31.0129 44.0323 30.9426 43.085 30.9426C42.0952 30.9426 41.8549 30.9989 41.1904 31.3647C38.7726 32.6875 38.3909 35.91 40.4127 37.7675ZM45.9834 34.8687C45.9693 36.0507 45.022 37.3031 43.905 37.6127C43.2688 37.7956 42.986 37.7816 42.2508 37.5986C41.2328 37.3313 40.1865 35.9381 40.1865 34.8687C40.1865 34.2917 40.5117 33.5177 40.9359 33.0252C41.968 31.8572 43.6081 31.6743 44.8948 32.6171C45.4179 32.9971 45.9834 34.1651 45.9834 34.8687Z" fill="#F49719"/>
<path id="Shape_4" fill-rule="evenodd" clip-rule="evenodd" d="M51.5825 32.983C50.3666 35.2064 51.5684 38.0208 54.0285 38.7103C54.8486 38.9355 55.9938 38.837 56.7998 38.457C57.5067 38.1193 58.4964 37.1202 58.7792 36.4447C59.571 34.5731 58.7933 32.3498 56.9977 31.3647C56.3332 30.9989 56.0928 30.9426 55.1031 30.9426C54.2123 30.9426 53.8447 31.0129 53.3923 31.2522C52.5015 31.7306 52.0208 32.1809 51.5825 32.983ZM58.0016 34.8687C58.0016 36.0085 56.9694 37.3172 55.8525 37.5986C55.0324 37.8097 54.8203 37.8097 54.1275 37.5564C53.0529 37.1765 52.2188 36.0085 52.2046 34.8687C52.2046 34.1651 52.7702 32.9971 53.2933 32.6171C54.5799 31.6743 56.2201 31.8572 57.2522 33.0252C57.6764 33.5177 58.0016 34.2917 58.0016 34.8687Z" fill="#F49719"/>
</g>
</g>
</svg>
