<svg width="70" height="70" viewBox="0 0 70 70" fill="none" xmlns="http://www.w3.org/2000/svg">
<path fill-rule="evenodd" clip-rule="evenodd" d="M11.1864 3.3226C10.5164 3.70131 10 4.55693 10 5.31435C10 5.95957 11.6889 11.2195 12.1634 12.047C12.5821 12.7764 13.3358 13.4917 14.1593 13.9546L14.8153 14.3053L14.8572 15.1469C14.8712 15.5957 14.913 16.1147 14.9549 16.283C15.0666 16.7739 15.8203 17.5594 16.3506 17.7277L16.8392 17.896V24.5726C16.8392 32.0346 16.9089 32.8342 17.7464 35.3589C18.7095 38.2343 20.1052 40.5206 22.2826 42.7087C25.088 45.528 28.1726 47.1832 32.1365 47.9827C33.8114 48.3053 37.231 48.3053 38.9199 47.9827C47.0989 46.3696 53.1704 39.7351 54.0916 31.4315C54.1754 30.6741 54.2452 27.3919 54.2452 23.9835C54.2452 17.9101 54.2452 17.882 54.5383 17.7979C55.0547 17.6295 55.9061 16.7459 56.0596 16.2129C56.1294 15.9183 56.1992 15.3713 56.1992 14.9926C56.1992 14.3053 56.2132 14.2772 56.8133 13.9686C57.6089 13.5338 58.6418 12.4959 58.9907 11.7805C59.1303 11.4579 59.6746 9.92904 60.1771 8.35808C61.0006 5.80527 61.0704 5.46864 60.9587 4.93564C60.8052 4.2764 60.4841 3.78547 59.9119 3.36468C59.5351 3.07014 59.5211 3.07013 35.6462 3.04209H35.6459H35.6456H35.6454H35.6451H35.6448L35.6399 3.04208L11.7447 3L11.1864 3.3226ZM59.4234 4.52887C59.8979 5.00577 59.9398 5.44059 59.6048 6.40841L59.3815 7.06765L35.5282 7.06765H11.6609L11.4655 6.60478C10.991 5.46864 11.1166 4.65511 11.8145 4.30445C12.0936 4.16419 17.0764 4.12211 35.584 4.12211L59.0186 4.12211L59.4234 4.52887ZM58.5022 9.88696C58.7674 9.07343 58.9907 8.35808 58.9907 8.28795C58.9907 8.23185 48.4109 8.18977 35.4724 8.18977C22.5338 8.18977 11.954 8.20379 11.954 8.23184C11.954 8.5264 13.0148 11.3317 13.28 11.7244C13.7685 12.4678 14.6339 13.0569 15.4853 13.2393C16.0017 13.3515 21.8359 13.3795 35.9609 13.3515L55.7107 13.3094L56.3667 12.9307C57.4275 12.2995 57.9439 11.5561 58.5022 9.88696ZM55.0547 15.3292C54.9989 15.9464 54.9151 16.1568 54.6081 16.4233L54.2312 16.7459L35.4584 16.7459L16.6856 16.7459L16.3506 16.3952C16.0715 16.1287 16.0017 15.9183 16.0017 15.3152V14.5718H35.5561L55.1105 14.5718L55.0547 15.3292ZM23.0642 22.3564C22.5757 21.8094 22.3803 21.3045 21.7522 18.92L21.487 17.9381L19.7144 17.896L17.9558 17.854V24.5726C17.9558 31.9505 18.0116 32.6658 18.7932 35.0082C19.2259 36.3127 19.7842 37.4909 20.5658 38.8094L21.0543 39.6229L21.501 38.599C22.813 35.5693 24.2227 33.4653 26.2046 31.5578C27.7958 30.0289 29.3032 29.0891 31.1735 28.4439C37.3427 26.3399 43.6096 28.7805 47.5037 34.8119C48.2295 35.92 49.7788 38.9917 49.7788 39.3144C49.7788 39.7071 50.1138 39.3705 50.686 38.3886C51.9561 36.2145 52.7378 33.7599 52.989 31.1931C53.0867 30.3234 53.1286 27.2937 53.1006 23.8292L53.0588 17.9381L51.2862 17.896L49.5136 17.854L49.3601 18.4571C48.4947 21.7954 48.1597 22.4406 46.9314 23.0998L46.3592 23.4084H35.6119L34.3183 23.4085H34.3183C25.404 23.4097 24.1909 23.4099 23.4937 22.8102C23.3839 22.7158 23.2869 22.6065 23.1746 22.4799L23.1745 22.4799C23.1395 22.4404 23.103 22.3993 23.0642 22.3564ZM48.2435 18.1906C48.2435 18.3028 48.062 19.0322 47.8387 19.8457C47.3781 21.4728 47.0152 21.9356 46.0242 22.2162C45.6474 22.3144 42.1859 22.3564 35.1653 22.3284C25.6184 22.2863 24.8368 22.2723 24.4181 22.0338C24.1668 21.9076 23.8598 21.6271 23.7341 21.4307C23.5387 21.1361 22.7013 18.4431 22.7013 18.1064C22.7013 18.0503 28.4518 18.0082 35.4724 18.0082C45.9823 18.0082 48.2435 18.0363 48.2435 18.1906ZM48.718 39.651C46.4988 34.0124 42.9396 30.3655 38.543 29.2294C36.254 28.6262 33.4346 28.7665 31.2572 29.58C27.377 31.0528 24.111 34.7417 22.1988 39.8333L21.8778 40.703L23.2596 42.0495C26.6792 45.3878 30.7268 47.0429 35.4584 47.0429C38.4453 47.0429 40.86 46.4818 43.3863 45.2054C45.3682 44.2096 47.4897 42.5825 48.5924 41.236L49.0949 40.6048L48.718 39.651Z" fill="#F49719"/>
<path fill-rule="evenodd" clip-rule="evenodd" d="M29.9311 41.6568C27.2513 37.4909 29.7915 31.9224 34.6348 31.3614C36.198 31.179 37.9706 31.5578 39.1012 32.3152C39.9944 32.9043 41.0133 34.0825 41.4879 35.0644C42.7859 37.7995 42.1858 40.8853 39.9247 42.9612C36.9517 45.6964 32.1364 45.0652 29.9311 41.6568ZM40.9854 38.8094C41.3623 36.5091 40.0922 34.0404 37.9706 33.0025C35.1931 31.6279 31.927 32.722 30.5592 35.5132C30.0567 36.5371 30.0288 36.6353 30.0288 37.9819C30.0288 39.2723 30.0707 39.4827 30.4615 40.3102C31.0338 41.5165 31.9689 42.4563 33.1413 43.0173C34.0067 43.4381 34.1881 43.4662 35.542 43.4662C36.8819 43.4662 37.0773 43.4241 37.845 43.0594C39.492 42.2459 40.6923 40.6188 40.9854 38.8094Z" fill="#F49719"/>
<path fill-rule="evenodd" clip-rule="evenodd" d="M32.3038 37.9118C32.3038 36.467 33.225 35.2748 34.7045 34.826C35.9886 34.4332 37.5658 35.1065 38.2776 36.3268C39.5477 38.4869 37.9706 41.208 35.4722 41.1939C33.6158 41.1939 32.2899 39.8194 32.3038 37.9118ZM37.5658 38.4728C37.7891 37.491 37.2168 36.3969 36.2817 36.0182C35.6955 35.7657 35.1651 35.7798 34.5928 36.0603C32.8063 36.9439 33.0854 39.5108 35.0116 40.0438C36.0584 40.3243 37.3285 39.5388 37.5658 38.4728Z" fill="#F49719"/>
<path fill-rule="evenodd" clip-rule="evenodd" d="M21.0822 49.6238C21.4172 48.8804 22.0313 48.3193 22.7711 48.0528C23.0083 47.9546 23.5806 47.9125 24.0551 47.9266C24.8368 47.9686 25.0182 48.0388 26.0929 48.7541C28.9961 50.7038 31.5643 51.5734 34.8443 51.7558C38.3615 51.9381 41.7951 50.9422 45.0193 48.7962C45.9405 48.165 46.1359 48.0949 46.9873 48.0528C48.0062 47.9967 48.5505 48.179 49.2623 48.8523C49.9742 49.5116 50.2394 50.1988 50.1696 51.2649C50.0998 52.5132 49.6671 53.1444 48.1736 54.1683C45.9265 55.6972 42.9815 56.9315 40.0783 57.5767C38.4174 57.9554 34.6907 58.0817 32.7925 57.8432C28.9961 57.3663 25.2136 55.8655 22.1988 53.6353C20.817 52.5974 20.3983 51.0965 21.0822 49.6238ZM45.3263 49.9183C39.2688 53.9439 31.6759 53.9018 25.6323 49.8061C24.8368 49.2591 24.446 49.0908 23.9574 49.0487C23.2037 49.0066 22.8967 49.1188 22.3523 49.7079C21.9894 50.0866 21.9336 50.2409 21.9336 50.9703C21.9336 51.7277 21.9755 51.8399 22.4221 52.3028C23.3991 53.3267 26.1348 54.8696 28.382 55.6551C31.0897 56.5949 32.3319 56.7913 35.5421 56.7913C38.6826 56.7913 39.7992 56.637 42.144 55.8655C44.7401 55.0239 48.3132 53.0041 48.8576 52.0644C49.1925 51.5173 49.1367 50.5355 48.7599 49.9744C48.3551 49.3713 47.9224 49.1469 47.1268 49.1469C46.5825 49.1469 46.3033 49.2591 45.3263 49.9183Z" fill="#F49719"/>
<path fill-rule="evenodd" clip-rule="evenodd" d="M14.9551 57.8292C14.9551 56.5809 15.4715 55.7112 16.5462 55.1502C17.3418 54.7294 18.3049 54.6312 19.0027 54.8977C19.1981 54.9678 20.1193 55.5429 21.0405 56.146C29.9873 62.1073 41.3207 62.1073 50.1558 56.1741C50.8676 55.6972 51.6632 55.2203 51.9284 55.1081C52.9892 54.6592 54.3012 54.9538 55.1665 55.8234C55.8784 56.5248 56.1156 57.198 56.0319 58.264C55.9482 59.3721 55.4876 60.0314 54.1476 60.9851C50.407 63.6361 45.7452 65.5718 41.0276 66.4274C39.4783 66.7079 38.7805 66.75 35.6819 66.75C31.8017 66.75 30.6154 66.6238 27.5447 65.8383C24.3066 65.0248 20.5939 63.3556 17.7745 61.4761C15.3878 59.8911 14.969 59.3441 14.9551 57.8292ZM34.5653 61.7145C29.2615 61.4761 24.7532 59.9893 20.2729 56.9876C18.8492 56.0338 18.5282 55.8795 18.0397 55.8936C17.286 55.8936 16.965 56.0479 16.5183 56.5668C15.7786 57.4505 15.9042 58.6007 16.8114 59.4002C18.1932 60.6345 21.8501 62.6823 24.3764 63.6361C28.5078 65.2211 31.8436 65.7822 36.4356 65.6559C40.5531 65.5578 43.54 64.9546 47.1968 63.4959C50.1418 62.3177 54.1895 59.8911 54.7059 58.9934C55.2224 58.0957 54.8595 56.7632 53.9522 56.2723C53.1148 55.8094 52.4309 55.9777 50.8258 57.0578C46.0523 60.2979 40.1762 61.967 34.5653 61.7145Z" fill="#F49719"/>
<path fill-rule="evenodd" clip-rule="evenodd" d="M42.5344 12.2013C41.362 11.5842 41.4039 9.6906 42.5763 9.11552C43.7627 8.52641 45.0747 9.32591 45.0747 10.6444C45.0747 11.3597 44.8514 11.7805 44.2931 12.1172C43.7627 12.4538 43.0788 12.4819 42.5344 12.2013ZM43.9441 10.9249C44.0698 10.6304 44.0558 10.5322 43.8464 10.2937C43.4138 9.81684 42.7996 10.0132 42.7996 10.6444C42.7996 11.3177 43.665 11.5281 43.9441 10.9249Z" fill="#F49719"/>
<path fill-rule="evenodd" clip-rule="evenodd" d="M46.6243 11.0371C46.4708 10.448 46.8476 9.57839 47.4059 9.19967C47.7967 8.93317 48.0201 8.87707 48.5225 8.93317C50.1974 9.11551 50.6441 11.3878 49.1506 12.2013C48.2015 12.7203 46.8895 12.1172 46.6243 11.0371ZM48.9413 10.6444C48.9413 10.4761 48.8715 10.2797 48.7738 10.1815C48.5365 9.94307 48.1596 9.97113 47.9084 10.2376C47.6432 10.4901 47.6293 10.6304 47.8247 11.0091C48.1038 11.5281 48.9413 11.2616 48.9413 10.6444Z" fill="#F49719"/>
<path fill-rule="evenodd" clip-rule="evenodd" d="M51.5928 10.6163C51.5928 9.98515 51.8719 9.5363 52.4861 9.15759C53.4072 8.59654 54.5657 9.04538 54.9286 10.0974C55.2915 11.1634 54.6634 12.2153 53.5608 12.3556C52.4581 12.5099 51.5928 11.7384 51.5928 10.6163ZM53.3375 11.2756C53.9237 11.2756 54.1609 10.6584 53.7422 10.2376C53.3235 9.81683 52.7094 10.0553 52.7094 10.6444C52.7094 10.8127 52.7792 11.0091 52.8769 11.1073C52.9746 11.2054 53.17 11.2756 53.3375 11.2756Z" fill="#F49719"/>
</svg>
