<svg width="20" height="19" viewBox="0 0 20 19" fill="none" xmlns="http://www.w3.org/2000/svg">
<path fill-rule="evenodd" clip-rule="evenodd" d="M10.4994 -0.000980377C7.91923 -0.000980377 7.59542 0.0103016 6.58202 0.0564194C5.5706 0.102735 4.88023 0.262859 4.27615 0.497801C3.65129 0.740462 3.12123 1.06507 2.59316 1.59334C2.06469 2.12141 1.74008 2.65147 1.49663 3.27613C1.2611 3.88041 1.10077 4.57098 1.05525 5.582C1.00992 6.5954 0.998047 6.91941 0.998047 9.49962C0.998047 12.0798 1.00953 12.4026 1.05545 13.416C1.10196 14.4275 1.26208 15.1178 1.49683 15.7219C1.73969 16.3468 2.06429 16.8768 2.59256 17.4049C3.12044 17.9334 3.65049 18.2588 4.27496 18.5014C4.87944 18.7364 5.57001 18.8965 6.58123 18.9428C7.59463 18.9889 7.91824 19.0002 10.4982 19.0002C13.0786 19.0002 13.4015 18.9889 14.4149 18.9428C15.4263 18.8965 16.1175 18.7364 16.7219 18.5014C17.3466 18.2588 17.8759 17.9334 18.4037 17.4049C18.9322 16.8768 19.2568 16.3468 19.5003 15.7221C19.7338 15.1178 19.8941 14.4273 19.9416 13.4162C19.9872 12.4028 19.999 12.0798 19.999 9.49962C19.999 6.91941 19.9872 6.5956 19.9416 5.5822C19.8941 4.57078 19.7338 3.88041 19.5003 3.27633C19.2568 2.65147 18.9322 2.12141 18.4037 1.59334C17.8753 1.06487 17.3468 0.740264 16.7213 0.497801C16.1157 0.262859 15.4249 0.102735 14.4135 0.0564194C13.4001 0.0103016 13.0775 -0.000980377 10.4965 -0.000980377H10.4994ZM9.64715 1.71111C9.81264 1.71085 9.99067 1.71093 10.1828 1.71101L10.4994 1.71111C13.0361 1.71111 13.3367 1.72021 14.3385 1.76573C15.2648 1.80809 15.7675 1.96287 16.1024 2.09291C16.5458 2.26511 16.8619 2.47096 17.1942 2.80348C17.5267 3.136 17.7326 3.45268 17.9051 3.89604C18.0352 4.23055 18.1902 4.73328 18.2323 5.65959C18.2778 6.66111 18.2877 6.96197 18.2877 9.49744C18.2877 12.0329 18.2778 12.3338 18.2323 13.3353C18.19 14.2616 18.0352 14.7643 17.9051 15.0988C17.7329 15.5422 17.5267 15.8579 17.1942 16.1902C16.8617 16.5227 16.546 16.7286 16.1024 16.9008C15.7679 17.0314 15.2648 17.1858 14.3385 17.2281C13.3369 17.2737 13.0361 17.2836 10.4994 17.2836C7.96258 17.2836 7.66192 17.2737 6.6604 17.2281C5.73409 17.1854 5.23135 17.0306 4.89626 16.9006C4.4529 16.7284 4.13621 16.5225 3.80369 16.19C3.47117 15.8575 3.26532 15.5416 3.09273 15.098C2.96269 14.7635 2.80771 14.2608 2.76555 13.3345C2.72003 12.333 2.71093 12.0321 2.71093 9.49506C2.71093 6.95801 2.72003 6.65874 2.76555 5.65722C2.80791 4.73091 2.96269 4.22817 3.09273 3.89327C3.26493 3.44991 3.47117 3.13323 3.80369 2.80071C4.13621 2.46818 4.4529 2.26234 4.89626 2.08974C5.23116 1.95911 5.73409 1.80473 6.6604 1.76217C7.53683 1.72259 7.87648 1.71071 9.64715 1.70873V1.71111ZM15.5708 3.2886C14.9414 3.2886 14.4307 3.79866 14.4307 4.42828C14.4307 5.05769 14.9414 5.56835 15.5708 5.56835C16.2002 5.56835 16.7108 5.05769 16.7108 4.42828C16.7108 3.79886 16.2002 3.2882 15.5708 3.2882V3.2886ZM5.62048 9.49961C5.62048 6.80521 7.80503 4.62066 10.4994 4.62066C13.1938 4.62077 15.3776 6.80527 15.3776 9.49961C15.3776 12.194 13.1938 14.3776 10.4994 14.3776C7.80503 14.3776 5.62048 12.194 5.62048 9.49961ZM13.6663 9.49961C13.6663 7.75052 12.2483 6.33275 10.4994 6.33275C8.75034 6.33275 7.33257 7.75052 7.33257 9.49961C7.33257 11.2485 8.75034 12.6665 10.4994 12.6665C12.2483 12.6665 13.6663 11.2485 13.6663 9.49961Z" fill="#F49719"/>
</svg>
